# xmcd CD database file
#
# Track frame offsets:
#	150
#	12521
#	29167
#	44485
#	59254
#	77672
#	95337
#	110427
#	125079
#	139488
#	154423
#	173057
#	186595
#	205458
#	220353
#	232190
#	249903
#	264889
#	281925
#	297247
#
# Disc length: 4148 seconds
#
# Revision: 3
# Processed by: cddbd v1.5.2PL0 Copyright (c) Steve Scherf et al.
# Submitted via: CDex 1.70beta2
#
DISCID=41103214
DTITLE=Dolly Parton - The Essential Dolly Parton
DYEAR=1987
DGENRE=Country
TTITLE0=9 to 5
TTITLE1=Single Women
TTITLE2=Think About Love
TTITLE3=But You Know I Love You
TTITLE4=Do I Ever Cross Your Mind
TTITLE5=Real Love
TTITLE6=You're The Only One
TTITLE7=Sweet Summer Lovin'
TTITLE8=Heartbreak Express
TTITLE9=Tie Our Love (in a Double Knot)
TTITLE10=Islands In The Stream  (duet with Kenny Rogers)
TTITLE11=Two Doors Down
TTITLE12=God Won't Get You
TTITLE13=Don't Call It Love
TTITLE14=To Daddy (original version)
TTITLE15=Starting Over Again
TTITLE16=Tennessee Homesick Blues
TTITLE17=Save The Last Dance For Me
TTITLE18=Old Flames Can't Hold A Candle To You
TTITLE19=I Will Always Love You
EXTD=YEAR: 1987
EXTT0=
EXTT1=
EXTT2=
EXTT3=
EXTT4=
EXTT5=
EXTT6=
EXTT7=
EXTT8=
EXTT9=
EXTT10=
EXTT11=
EXTT12=
EXTT13=
EXTT14=
EXTT15=
EXTT16=
EXTT17=
EXTT18=
EXTT19=
PLAYORDER=
